<?xml version="1.0" encoding="UTF-8" standalone="no"?>
<svg
   xmlns:dc="http://purl.org/dc/elements/1.1/"
   xmlns:cc="http://creativecommons.org/ns#"
   xmlns:rdf="http://www.w3.org/1999/02/22-rdf-syntax-ns#"
   xmlns:svg="http://www.w3.org/2000/svg"
   xmlns="http://www.w3.org/2000/svg"
   xmlns:sodipodi="http://sodipodi.sourceforge.net/DTD/sodipodi-0.dtd"
   xmlns:inkscape="http://www.inkscape.org/namespaces/inkscape"
   version="1.1"
   width="841.88977"
   height="595.27557"
   id="svg10"
   viewBox="0 0 841.88977 595.27557"
   sodipodi:docname="logo_hygge.cdr">
  <metadata
     id="metadata16">
    <rdf:RDF>
      <cc:Work
         rdf:about="">
        <dc:format>image/svg+xml</dc:format>
        <dc:type
           rdf:resource="http://purl.org/dc/dcmitype/StillImage" />
      </cc:Work>
    </rdf:RDF>
  </metadata>
  <defs
     id="defs14" />
  <sodipodi:namedview
     pagecolor="#ffffff"
     bordercolor="#666666"
     borderopacity="1"
     objecttolerance="10"
     gridtolerance="10"
     guidetolerance="10"
     inkscape:pageopacity="0"
     inkscape:pageshadow="2"
     inkscape:window-width="640"
     inkscape:window-height="480"
     id="namedview12" />
  <g
     id="Layer1000">
    <g
       id="Layer1001">
      <path
         d="m 501.1854,201.0616 c -0.6905,-19.3099 -9.7764,-37.1258 -25.0131,-49.0263 l -0.6843,-0.5345 5.4692,-7.0024 0.6843,0.5345 c 12.4562,9.7288 21.4221,23.0522 25.6861,38.1762 1.5223,-9.133 0.7999,-18.5034 -2.0678,-27.3476 l -0.2677,-0.8261 8.4514,-2.7405 0.2679,0.826 c 4.4264,13.6526 4.351,28.0762 -0.2192,41.6815 -11.5882,34.4973 -33.0499,33.0101 -48.735,46.7289 -16.3999,14.3435 -19.3423,58.5542 -23.4004,80.3009 l -0.0901,0.2634 c -1.2082,3.5385 -4.5999,5.6152 -7.9634,6.7806 -3.7548,1.301 -8.1452,1.7776 -12.1067,1.7731 -3.9783,-0.005 -8.3736,-0.4867 -12.1502,-1.7717 -3.4209,-1.1639 -6.9393,-3.2593 -8.1823,-6.8572 l -0.1211,-0.3502 c -4.1284,-21.4066 -7.4993,-65.897 -23.4639,-80.0135 -15.7229,-13.9025 -37.2206,-12.1642 -48.8746,-46.8543 -4.5705,-13.6051 -4.6456,-28.0289 -0.2197,-41.6815 l 0.2679,-0.826 8.4523,2.7405 -0.2678,0.8261 c -2.8675,8.8441 -3.5895,18.2143 -2.0679,27.3471 4.2642,-15.1235 13.2305,-28.4473 25.6864,-38.1757 l 0.6843,-0.5345 5.4696,7.0024 -0.6844,0.5345 c -15.2368,11.9 -24.3226,29.7162 -25.0136,49.0255 12.0208,22.1294 20.8934,17.0244 37.0004,29.0061 1.2895,-5.073 0.3962,-10.5449 -2.5312,-14.9284 l -0.4822,-0.7221 7.3888,-4.9341 0.4823,0.722 c 5.1636,7.7312 6.0106,17.6751 2.3334,26.177 18.2053,18.7985 19.426,57.5362 24.314,82.8816 0.4537,0.5111 2.1207,1.1245 2.6476,1.3038 2.8755,0.9783 6.3083,1.3178 9.3338,1.3213 2.9813,0.004 6.4202,-0.3111 9.2498,-1.2917 0.4716,-0.1635 2.0618,-0.7622 2.4524,-1.2396 4.6089,-24.6969 6.9875,-65.3047 24.0929,-82.9754 -3.677,-8.5019 -2.8304,-18.4453 2.3326,-26.177 l 0.4823,-0.722 7.39,4.9341 -0.4824,0.7221 c -2.9278,4.3835 -3.8209,9.8554 -2.5312,14.9286 16.1073,-11.9817 24.9786,-6.8779 37.0005,-29.0055 z m -108.4875,33.9865 c 9.766,-3.1587 19.2567,-4.8281 28.6501,-4.8358 9.4468,-0.008 18.7359,1.663 28.0392,5.1858 l -2.8265,7.5063 c -8.4019,-3.1815 -16.7537,-4.6903 -25.2127,-4.6836 -8.5127,0.007 -17.1953,1.5465 -26.2004,4.4589 z m 9.9633,11.5877 c 7.2152,3.19 12.7256,4.6172 18.1207,4.4865 5.4513,-0.132 11.1104,-1.8553 18.5322,-4.9602 l 3.0778,7.412 c -8.2883,3.4673 -14.7756,5.396 -21.4216,5.5568 -6.7025,0.1624 -13.2419,-1.4752 -21.5441,-5.1458 z"
         style="fill:#1b1918;fill-rule:evenodd"
         id="path2" />
      <path
         d="m 280.9012,413.6384 h 9.9718 v -23.5206 h 27.0789 v 23.5206 h 9.9722 v -55.8115 h -9.9722 v 23.2017 H 290.873 v -23.2017 h -9.9718 z m 76.9902,0 h 10.0531 v -22.2448 l 22.5387,-33.5667 h -11.4315 l -16.0526,24.7165 -15.8907,-24.7165 h -11.7557 l 22.5387,33.806 z m 61.4087,0.9567 c 10.0532,0 18.0795,-3.9865 23.6738,-8.6907 v -23.4407 h -24.1603 v 8.5311 h 14.5124 v 10.445 c -3.4862,2.5513 -8.3506,4.2257 -13.7016,4.2257 -11.5938,0 -19.2958,-8.4518 -19.2958,-19.9327 0,-10.8435 7.9453,-19.853 18.404,-19.853 7.2155,0 11.5125,2.3121 15.8907,5.9797 l 6.3237,-7.4149 c -5.8375,-4.8637 -11.918,-7.5744 -21.8092,-7.5744 -17.1067,0 -29.2676,13.2353 -29.2676,28.8626 0,16.4244 11.6747,28.8623 29.4299,28.8623 z m 62.8987,0 c 10.0531,0 18.0794,-3.9865 23.6737,-8.6907 v -23.4407 h -24.1603 v 8.5311 h 14.5124 v 10.445 c -3.4861,2.5513 -8.3506,4.2257 -13.7016,4.2257 -11.5937,0 -19.2958,-8.4518 -19.2958,-19.9327 0,-10.8435 7.9453,-19.853 18.404,-19.853 7.2156,0 11.5125,2.3121 15.8907,5.9797 l 6.3238,-7.4149 c -5.8376,-4.8637 -11.918,-7.5744 -21.8092,-7.5744 -17.1067,0 -29.2677,13.2353 -29.2677,28.8626 0,16.4244 11.6747,28.8623 29.43,28.8623 z m 36.3139,-0.9567 h 42.4827 v -8.7703 h -32.5109 v -14.9895 h 28.4572 v -8.7703 h -28.4572 v -14.5111 h 32.1056 v -8.7703 h -42.0774 z"
         style="fill:#1b1918;fill-rule:evenodd"
         id="path4" />
    </g>
    <path
       d="m 341.6512,453.7791 c 2.4304,0 4.0059,-1.1214 4.9673,-2.35 v 2.0563 h 2.0295 v -8.4392 c 0,-1.7623 -0.4806,-3.0978 -1.442,-4.0592 -0.9881,-0.9881 -2.5104,-1.5221 -4.4599,-1.5221 -2.0295,0 -3.4984,0.4806 -5.0208,1.1749 l 0.6143,1.6827 c 1.2821,-0.5875 2.5639,-0.9881 4.1928,-0.9881 2.5906,0 4.0861,1.2818 4.0861,3.7387 v 0.4272 c -1.2286,-0.3472 -2.4569,-0.5875 -4.2196,-0.5875 -3.4984,0 -5.9019,1.5489 -5.9019,4.5133 0,2.8841 2.5638,4.353 5.1542,4.353 z m 0.4006,-1.6557 c -1.8695,0 -3.4719,-1.0149 -3.4719,-2.7507 0,-1.7092 1.469,-2.8306 4.0328,-2.8306 1.6823,0 3.0178,0.2937 4.0324,0.5874 v 1.2817 c 0,2.1901 -2.0564,3.7122 -4.5933,3.7122 z m 10.9492,5.6351 h 2.0564 v -6.9169 c 1.0683,1.5489 2.7241,2.9375 5.2879,2.9375 3.3381,0 6.5962,-2.6706 6.5962,-7.1836 0,-4.5936 -3.285,-7.2109 -6.5962,-7.2109 -2.5373,0 -4.1661,1.4155 -5.2879,3.0713 v -2.7772 h -2.0564 z m 6.9703,-5.822 c -2.5638,0 -4.9939,-2.1363 -4.9939,-5.341 0,-3.205 2.4301,-5.3679 4.9939,-5.3679 2.6172,0 4.8604,2.0829 4.8604,5.341 0,3.3915 -2.1897,5.3679 -4.8604,5.3679 z m 10.7624,1.5489 h 2.0563 v -5.5013 c 0,-4.1662 2.457,-6.3294 5.4748,-6.3294 h 0.1603 v -2.2167 c -2.6172,-0.1068 -4.6202,1.549 -5.6351,3.8459 v -3.6052 h -2.0563 z m 11.457,-6.0622 h 10.9492 c 0.0269,-0.3206 0.0269,-0.534 0.0269,-0.7212 0,-4.0593 -2.3504,-7.3174 -6.4363,-7.3174 -3.819,0 -6.6231,3.2047 -6.6231,7.2109 0,4.2996 3.0979,7.2105 6.8903,7.2105 2.6169,0 4.2996,-1.0418 5.6882,-2.5907 l -1.2817,-1.1483 c -1.1218,1.1752 -2.457,1.9495 -4.3531,1.9495 -2.4303,0 -4.5667,-1.6823 -4.8604,-4.5933 z m 0,-1.6558 c 0.2937,-2.6707 2.1098,-4.6467 4.4864,-4.6467 2.7241,0 4.1662,2.1363 4.4065,4.6467 z m 19.1478,7.9852 c 2.7507,0 4.9139,-1.5224 4.9139,-4.1396 0,-2.5369 -2.2967,-3.365 -4.4333,-4.0059 -1.8427,-0.5609 -3.5519,-1.068 -3.5519,-2.3766 0,-1.2018 1.0418,-2.0564 2.6707,-2.0564 1.3352,0 2.8041,0.5075 4.0858,1.3352 l 0.935,-1.5489 c -1.4155,-0.9346 -3.285,-1.5224 -4.9674,-1.5224 -2.7241,0 -4.7001,1.5758 -4.7001,3.9525 0,2.5907 2.4035,3.3384 4.5667,3.9527 1.8158,0.5071 3.445,1.0415 3.445,2.4301 0,1.3886 -1.2018,2.2432 -2.8575,2.2432 -1.6293,0 -3.285,-0.6409 -4.7805,-1.7626 l -1.0415,1.4689 c 1.5489,1.2552 3.7387,2.0298 5.7151,2.0298 z m 8.172,-7.2105 h 7.4243 v -2.1633 h -7.4243 z m 16.0238,7.2105 c 2.7506,0 4.9139,-1.5224 4.9139,-4.1396 0,-2.5369 -2.2967,-3.365 -4.4334,-4.0059 -1.8426,-0.5609 -3.5518,-1.068 -3.5518,-2.3766 0,-1.2018 1.0418,-2.0564 2.6707,-2.0564 1.3352,0 2.8041,0.5075 4.0858,1.3352 l 0.935,-1.5489 c -1.4155,-0.9346 -3.285,-1.5224 -4.9674,-1.5224 -2.7241,0 -4.7001,1.5758 -4.7001,3.9525 0,2.5907 2.4035,3.3384 4.5667,3.9527 1.8158,0.5071 3.445,1.0415 3.445,2.4301 0,1.3886 -1.2018,2.2432 -2.8576,2.2432 -1.6292,0 -3.285,-0.6409 -4.7804,-1.7626 l -1.0415,1.4689 c 1.5489,1.2552 3.7387,2.0298 5.7151,2.0298 z m 8.7329,-0.2672 h 2.0563 v -3.6052 l 2.8041,-2.831 4.9408,6.4362 h 2.457 l -5.9823,-7.8783 5.7951,-5.9284 h -2.5638 l -7.4509,7.7711 v -13.4597 h -2.0563 z m 15.2491,-16.8246 h 2.3501 v -2.2701 h -2.3501 z m 0.1334,16.8246 h 2.0564 v -13.8067 h -2.0564 z m 22.1929,0.2937 c 3.3381,0 6.5962,-2.6706 6.5962,-7.1836 0,-4.5936 -3.285,-7.2109 -6.5962,-7.2109 -2.5373,0 -4.1662,1.4155 -5.2879,3.0713 v -8.4658 h -2.0564 v 19.4953 h 2.0564 v -2.6438 c 1.0683,1.5489 2.7241,2.9375 5.2879,2.9375 z m -0.374,-1.8426 c -2.5638,0 -4.9939,-2.1363 -4.9939,-5.341 0,-3.205 2.4301,-5.3679 4.9939,-5.3679 2.6172,0 4.8604,2.0829 4.8604,5.341 0,3.3915 -2.1897,5.3679 -4.8604,5.3679 z m 14.8751,1.8426 c 2.4304,0 4.0058,-1.1214 4.9673,-2.35 v 2.0563 h 2.0295 v -8.4392 c 0,-1.7623 -0.4806,-3.0978 -1.442,-4.0592 -0.9881,-0.9881 -2.5104,-1.5221 -4.4599,-1.5221 -2.0295,0 -3.4984,0.4806 -5.0208,1.1749 l 0.6143,1.6827 c 1.2821,-0.5875 2.5638,-0.9881 4.1927,-0.9881 2.5907,0 4.0862,1.2818 4.0862,3.7387 v 0.4272 c -1.2286,-0.3472 -2.4569,-0.5875 -4.2196,-0.5875 -3.4984,0 -5.9019,1.5489 -5.9019,4.5133 0,2.8841 2.5638,4.353 5.1542,4.353 z m 0.4006,-1.6557 c -1.8695,0 -3.4719,-1.0149 -3.4719,-2.7507 0,-1.7092 1.4689,-2.8306 4.0328,-2.8306 1.6823,0 3.0178,0.2937 4.0324,0.5874 v 1.2817 c 0,2.1901 -2.0564,3.7122 -4.5933,3.7122 z m 10.9492,1.362 h 2.0564 v -5.5013 c 0,-4.1662 2.4569,-6.3294 5.4748,-6.3294 h 0.1603 v -2.2167 c -2.6173,-0.1068 -4.6202,1.549 -5.6351,3.8459 v -3.6052 h -2.0564 z"
       style="fill:#1b1918;fill-rule:evenodd"
       id="path7" />
  </g>
</svg>
